<svg width="960" height="933" viewBox="0 0 960 933" fill="none" xmlns="http://www.w3.org/2000/svg">
<g clip-path="url(#clip0_227_2)">
<path d="M83.4315 225.203C92.2613 225.203 99.4192 217.822 99.4192 208.716C99.4192 199.611 92.2613 192.229 83.4315 192.229C74.6018 192.229 67.4438 199.611 67.4438 208.716C67.4438 217.822 74.6018 225.203 83.4315 225.203Z" fill="#00B7C2" fill-opacity="0.15"/>
<path d="M161.713 85.5508C164.87 71.8581 154.503 22.7443 152.062 9.23628L151.054 3.46362L58.6886 149.627C58.0357 150.657 57.7727 151.898 57.9497 153.114C59.6944 165.708 64.7688 177.564 72.6163 187.38V187.38C69.3855 189.057 66.5741 191.481 64.4018 194.463C62.2295 197.445 60.755 200.904 60.0935 204.571C59.4319 208.238 59.6013 212.012 60.5882 215.601C61.5751 219.189 63.353 222.493 65.783 225.255C68.2129 228.018 71.2292 230.164 74.5963 231.526C77.9634 232.887 81.5901 233.428 85.1933 233.105C88.7966 232.783 92.2787 231.606 95.3679 229.666C98.4572 227.727 101.07 225.077 103.002 221.924C105.202 218.475 106.498 214.498 106.764 210.379H106.898C118.765 213.836 131.328 213.836 143.195 210.379C144.353 210.071 145.354 209.32 145.994 208.278L238.472 62.3447L232.919 63.7071C220.043 66.9629 206.205 69.2719 193.173 72.5508C182.568 74.9731 172.378 79.0287 162.944 84.581C161.787 85.3315 160.802 86.3321 160.056 87.5135L102.532 178.514" stroke="#00B7C2" stroke-opacity="0.15" stroke-width="3.04" stroke-linecap="round" stroke-linejoin="round"/>
<path d="M50.7172 448.582C59.5469 448.582 66.7049 441.2 66.7049 432.095C66.7049 422.99 59.5469 415.608 50.7172 415.608C41.8874 415.608 34.7295 422.99 34.7295 432.095C34.7295 441.2 41.8874 448.582 50.7172 448.582Z" fill="#00B7C2" fill-opacity="0.15"/>
<path d="M69.0113 286.047C66.078 272.308 35.8715 232.938 28.0568 221.786L24.6309 217.052L3.44833 390.07C3.29013 391.288 3.57752 392.523 4.25443 393.534C11.1359 404.092 20.7141 412.483 31.9306 417.779V417.779C29.5054 421.175 27.9829 425.165 27.5141 429.355C27.0453 433.545 27.6465 437.788 29.258 441.664C30.8696 445.54 33.4355 448.915 36.7015 451.453C39.9675 453.992 43.8201 455.606 47.8774 456.136C51.9348 456.666 56.056 456.093 59.8326 454.474C63.6092 452.856 66.9099 450.247 69.4077 446.908C71.9054 443.568 73.5134 439.613 74.0723 435.436C74.6312 431.258 74.1216 427.002 72.5939 423.09H72.7507C84.8322 420.824 96.0741 415.167 105.241 406.741C106.142 405.938 106.724 404.82 106.876 403.601L128.148 230.56L123.669 234.301C113.414 242.983 101.949 251.295 91.6493 260.208C83.1354 267.162 75.685 275.397 69.5487 284.638C68.826 285.829 68.3672 287.169 68.2052 288.564L54.9493 396.328" stroke="#00B7C2" stroke-opacity="0.15" stroke-width="3.04" stroke-linecap="round" stroke-linejoin="round"/>
<path d="M121.072 664.225C129.902 664.225 137.06 656.844 137.06 647.738C137.06 638.633 129.902 631.252 121.072 631.252C112.242 631.252 105.084 638.633 105.084 647.738C105.084 656.844 112.242 664.225 121.072 664.225Z" fill="#00B7C2" fill-opacity="0.15"/>
<path d="M77.5425 507.486C69.2352 496.449 25.6385 473.797 14.0172 467.216L8.95667 464.376L60.9726 630.374C61.3538 631.556 62.1535 632.545 63.2118 633.145C73.782 639.692 85.9025 643.097 98.2324 642.982H98.1205C97.3207 647.118 97.5832 651.398 98.8818 655.397C100.18 659.397 102.47 662.977 105.524 665.782C108.578 668.588 112.29 670.522 116.292 671.392C120.294 672.262 124.447 672.039 128.339 670.744C132.231 669.449 135.728 667.127 138.482 664.009C141.236 660.891 143.153 657.085 144.041 652.968C144.929 648.851 144.758 644.566 143.545 640.538C142.332 636.51 140.12 632.879 137.127 630.005H137.284C147.359 622.666 155.272 612.597 160.146 600.911C160.629 599.781 160.693 598.507 160.325 597.332L108.331 431.333L105.89 436.644C100.181 448.997 93.2391 461.536 87.5516 474.097C82.7138 484.125 79.3553 494.842 77.5873 505.893C77.4176 507.292 77.5553 508.712 77.9903 510.049L110.324 613.426" stroke="#00B7C2" stroke-opacity="0.15" stroke-width="3.04" stroke-linecap="round" stroke-linejoin="round"/>
<path d="M282.875 822.396C291.704 822.396 298.862 815.015 298.862 805.909C298.862 796.804 291.704 789.422 282.875 789.422C274.045 789.422 266.887 796.804 266.887 805.909C266.887 815.015 274.045 822.396 282.875 822.396Z" fill="#00B7C2" fill-opacity="0.15"/>
<path d="M184.373 699.3C172.17 693.019 123.401 692.373 110.167 691.657L104.48 691.357L221.454 817.408C222.277 818.307 223.394 818.858 224.589 818.956C236.871 820.079 249.215 817.682 260.259 812.028C261.162 815.608 262.85 818.926 265.191 821.728C267.532 824.53 270.464 826.741 273.764 828.192C277.063 829.643 280.641 830.294 284.222 830.097C287.804 829.899 291.294 828.858 294.424 827.052C297.554 825.247 300.241 822.725 302.279 819.682C304.317 816.638 305.651 813.153 306.179 809.495C306.707 805.837 306.415 802.102 305.325 798.579C304.236 795.055 302.377 791.836 299.892 789.169C297.127 786.201 293.674 784.008 289.861 782.796L289.973 782.68C295.925 771.542 298.777 758.924 298.213 746.22C298.179 744.985 297.7 743.808 296.869 742.918L179.828 616.936V622.824C179.828 636.493 178.977 650.902 179.201 664.779C179.069 675.971 180.579 687.119 183.679 697.845C184.161 699.194 184.925 700.416 185.918 701.424L258.759 779.932" stroke="#00B7C2" stroke-opacity="0.15" stroke-width="3.04" stroke-linecap="round" stroke-linejoin="round"/>
<path d="M876.345 225.365C885.174 225.365 892.332 217.983 892.332 208.878C892.332 199.773 885.174 192.391 876.345 192.391C867.515 192.391 860.357 199.773 860.357 208.878C860.357 217.983 867.515 225.365 876.345 225.365Z" fill="#00B7C2" fill-opacity="0.15"/>
<path d="M798.623 85.4354C787.763 76.938 739.979 66.9629 726.969 63.7533L721.551 62.3448L813.916 208.439C814.561 209.476 815.56 210.226 816.715 210.54C828.59 213.997 841.16 213.997 853.035 210.54V210.54C853.312 214.754 854.654 218.82 856.926 222.334C859.198 225.849 862.321 228.689 865.987 230.574C869.652 232.459 873.731 233.323 877.82 233.08C881.909 232.837 885.866 231.496 889.297 229.19C892.728 226.883 895.515 223.691 897.38 219.931C899.246 216.171 900.126 211.974 899.932 207.755C899.739 203.536 898.479 199.442 896.278 195.88C894.077 192.319 891.01 189.412 887.384 187.45H887.518C895.373 177.641 900.442 165.781 902.162 153.183C902.339 151.967 902.076 150.726 901.423 149.697L808.945 3.50983L807.938 9.2363C805.587 22.6981 802.071 36.6911 799.787 50.3607C797.671 61.3424 797.157 72.5886 798.265 83.7267C798.466 85.1219 798.963 86.4542 799.72 87.629L857.244 178.606" stroke="#00B7C2" stroke-opacity="0.15" stroke-width="3.04" stroke-linecap="round" stroke-linejoin="round"/>
<path d="M909.014 448.628C917.844 448.628 925.002 441.246 925.002 432.141C925.002 423.036 917.844 415.654 909.014 415.654C900.184 415.654 893.026 423.036 893.026 432.141C893.026 441.246 900.184 448.628 909.014 448.628Z" fill="#00B7C2" fill-opacity="0.15"/>
<path d="M891.392 286.001C885.234 273.462 846.429 242.983 836.196 234.301L831.718 230.56L853.124 403.601C853.257 404.821 853.833 405.943 854.736 406.741C863.956 415.193 875.263 420.851 887.406 423.09H887.294C885.766 427.002 885.257 431.258 885.816 435.436C886.375 439.613 887.983 443.568 890.48 446.908C892.978 450.247 896.279 452.856 900.055 454.474C903.832 456.093 907.953 456.666 912.011 456.136C916.068 455.606 919.921 453.992 923.187 451.453C926.452 448.915 929.018 445.54 930.63 441.664C932.241 437.788 932.843 433.545 932.374 429.355C931.905 425.165 930.383 421.175 927.957 417.779H928.114C939.334 412.489 948.914 404.097 955.79 393.534C956.473 392.525 956.768 391.291 956.619 390.07L935.302 217.052L931.943 221.809C924.128 232.846 915.037 243.86 907.312 255.128C900.745 264.043 895.521 273.93 891.817 284.453C891.408 285.804 891.285 287.229 891.459 288.633L904.625 396.351" stroke="#00B7C2" stroke-opacity="0.15" stroke-width="3.04" stroke-linecap="round" stroke-linejoin="round"/>
<path d="M838.682 664.133C847.511 664.133 854.669 656.751 854.669 647.646C854.669 638.541 847.511 631.159 838.682 631.159C829.852 631.159 822.694 638.541 822.694 647.646C822.694 656.751 829.852 664.133 838.682 664.133Z" fill="#00B7C2" fill-opacity="0.15"/>
<path d="M882.838 507.624C882.413 493.562 859.819 448.997 854.132 436.644L851.669 431.333L799.765 597.332C799.386 598.505 799.45 599.783 799.944 600.911C804.81 612.595 812.714 622.664 822.784 630.005H822.672C819.679 632.879 817.466 636.51 816.253 640.538C815.041 644.566 814.87 648.851 815.758 652.968C816.646 657.085 818.562 660.891 821.316 664.009C824.07 667.127 827.567 669.449 831.459 670.744C835.352 672.039 839.505 672.262 843.507 671.392C847.509 670.522 851.221 668.588 854.274 665.782C857.328 662.977 859.618 659.397 860.917 655.397C862.215 651.398 862.478 647.118 861.678 642.982H861.835C874.172 643.1 886.301 639.695 896.878 633.145C897.939 632.549 898.74 631.558 899.117 630.374L951.066 464.376L946.072 467.216C934.451 473.797 921.71 479.777 909.977 486.566C900.358 491.77 891.556 498.441 883.868 506.354C882.936 507.379 882.246 508.612 881.853 509.957L849.497 613.333" stroke="#00B7C2" stroke-opacity="0.15" stroke-width="3.04" stroke-linecap="round" stroke-linejoin="round"/>
<path d="M676.924 822.211C685.754 822.211 692.912 814.83 692.912 805.725C692.912 796.619 685.754 789.238 676.924 789.238C668.094 789.238 660.936 796.619 660.936 805.725C660.936 814.83 668.094 822.211 676.924 822.211Z" fill="#00B7C2" fill-opacity="0.15"/>
<path d="M775.94 699.646C781.493 686.808 780.038 636.539 780.127 622.87V616.982L663.153 742.964C662.34 743.866 661.864 745.036 661.81 746.266C661.248 758.993 664.124 771.631 670.117 782.772C666.207 784.011 662.68 786.282 659.884 789.361C657.088 792.439 655.121 796.217 654.177 800.321C653.233 804.425 653.346 808.712 654.505 812.757C655.663 816.801 657.826 820.464 660.78 823.381C663.734 826.298 667.376 828.369 671.345 829.387C675.314 830.405 679.472 830.336 683.407 829.186C687.342 828.037 690.917 825.846 693.779 822.833C696.64 819.819 698.688 816.086 699.719 812.005L699.831 812.121C710.883 817.775 723.234 820.172 735.523 819.048C736.713 818.956 737.825 818.403 738.636 817.501L855.632 691.541L849.945 691.841C836.689 692.534 822.694 692.188 809.259 693.019C798.411 693.372 787.676 695.411 777.418 699.069C776.148 699.575 775.001 700.363 774.059 701.378L701.197 779.886" stroke="#00B7C2" stroke-opacity="0.15" stroke-width="3.04" stroke-linecap="round" stroke-linejoin="round"/>
<path d="M758.743 245.061H687.538C679.118 161.126 641.814 55.7177 490.222 55.7177C458.426 55.7177 425.734 56.6413 394.833 56.6413C387.757 56.6413 378.935 55.7177 372.755 60.2666C365.679 65.739 368.277 146.787 369.217 175.027C369.329 182.185 369.441 208.116 369.531 245.107H269.193V277.873H369.62C369.62 292.004 369.62 307.105 369.62 322.922H269.193V355.596H369.754C369.889 444.841 370.001 548.934 370.046 624.371V785.151C364.806 787.263 360.446 791.197 357.72 796.271C354.993 801.346 354.072 807.244 355.114 812.945C356.156 818.646 359.097 823.793 363.428 827.496C367.759 831.199 373.208 833.226 378.834 833.226C384.46 833.226 389.91 831.199 394.241 827.496C398.572 823.793 401.512 818.646 402.555 812.945C403.597 807.244 402.675 801.346 399.949 796.271C397.223 791.197 392.863 787.263 387.623 785.151V683.483C387.623 683.011 387.805 682.559 388.128 682.225C388.451 681.892 388.89 681.705 389.347 681.705H412.433C412.911 681.71 413.368 681.905 413.71 682.249C414.052 682.593 414.252 683.06 414.269 683.552V885.064C409.029 887.176 404.67 891.11 401.943 896.185C399.217 901.26 398.295 907.157 399.337 912.858C400.38 918.56 403.32 923.706 407.652 927.409C411.983 931.112 417.432 933.139 423.058 933.139C428.684 933.139 434.133 931.112 438.464 927.409C442.795 923.706 445.736 918.56 446.778 912.858C447.821 907.157 446.899 901.26 444.173 896.185C441.446 891.11 437.087 887.176 431.847 885.064V739.016C435.653 739.016 440.02 738.877 445.282 738.715C447.521 738.715 450.141 738.715 452.94 738.6V788.614C452.945 789.072 453.124 789.509 453.438 789.832C453.752 790.156 454.175 790.34 454.619 790.346H482.698C484.487 794.407 487.547 797.73 491.388 799.78C495.228 801.831 499.626 802.49 503.874 801.652C508.122 800.815 511.973 798.528 514.809 795.161C517.645 791.793 519.3 787.54 519.509 783.085C519.718 778.631 518.468 774.233 515.961 770.599C513.453 766.965 509.834 764.306 505.684 763.05C501.534 761.793 497.095 762.012 493.081 763.671C489.066 765.33 485.709 768.333 483.549 772.197H472.219C471.998 772.2 471.778 772.157 471.573 772.071C471.368 771.985 471.181 771.858 471.025 771.697C470.868 771.535 470.745 771.343 470.661 771.131C470.578 770.92 470.537 770.693 470.54 770.465V694.428C471.883 630.651 470.025 515.083 470.025 506.493C470.025 493.747 494.655 496.472 501.798 496.472C617.362 496.472 667.318 429.37 683.53 355.619H758.855V322.876H688.478C689.374 313.271 689.799 303.688 689.799 294.29C689.799 289.049 689.799 283.553 689.598 277.826H758.743V245.061ZM500.119 770.142C502.413 770.142 504.656 770.843 506.563 772.158C508.47 773.472 509.957 775.34 510.835 777.525C511.713 779.711 511.943 782.116 511.495 784.436C511.047 786.756 509.943 788.888 508.321 790.56C506.699 792.233 504.632 793.372 502.382 793.834C500.132 794.295 497.8 794.058 495.68 793.153C493.561 792.248 491.749 790.715 490.475 788.748C489.2 786.781 488.52 784.468 488.52 782.103C488.526 778.932 489.75 775.894 491.924 773.652C494.098 771.41 497.045 770.148 500.119 770.142ZM470.786 186.826C470.786 181.354 469.913 174.981 470.786 168.608C473.428 158.586 484.915 158.586 493.737 159.372C540.178 162.674 568.458 201.166 576.587 244.945H470.383C470.383 220.885 470.495 199.111 470.786 186.826ZM393.311 808.334C393.315 811.299 392.466 814.198 390.872 816.666C389.278 819.133 387.01 821.057 384.355 822.195C381.7 823.333 378.777 823.633 375.957 823.057C373.137 822.482 370.545 821.056 368.51 818.962C366.476 816.867 365.089 814.196 364.527 811.289C363.964 808.381 364.251 805.367 365.35 802.627C366.449 799.888 368.312 797.546 370.702 795.898C373.093 794.25 375.903 793.371 378.778 793.371C382.629 793.371 386.322 794.947 389.046 797.752C391.771 800.557 393.305 804.363 393.311 808.334ZM437.534 908.131C437.534 911.095 436.682 913.993 435.085 916.457C433.488 918.922 431.219 920.842 428.563 921.977C425.908 923.111 422.986 923.408 420.167 922.829C417.348 922.251 414.758 920.824 412.726 918.728C410.694 916.632 409.31 913.962 408.749 911.055C408.188 908.148 408.476 905.135 409.576 902.397C410.676 899.658 412.538 897.318 414.928 895.671C417.318 894.024 420.128 893.146 423.002 893.146C426.856 893.146 430.552 894.724 433.278 897.535C436.003 900.345 437.534 904.157 437.534 908.131ZM552.919 375.338C543.94 385.369 533.001 393.323 520.824 398.676C508.647 404.03 495.508 406.66 482.273 406.395C476.093 406.395 469.913 399.122 469.913 392.725C469.913 382.727 469.913 372.706 470.786 362.708C470.786 361.045 470.786 358.69 470.786 355.78H565.48C562.214 362.881 557.984 369.466 552.919 375.338ZM575.736 322.876H470.629C470.629 309.345 470.495 293.713 470.45 277.826H579.565C579.818 292.94 578.534 308.039 575.736 322.876Z" fill="#00B7C2" fill-opacity="0.15"/>
</g>
<defs>
<clipPath id="clip0_227_2">
<rect width="960" height="933" fill="white"/>
</clipPath>
</defs>
</svg>
