<svg id="etO9gD128Hh1" xmlns="http://www.w3.org/2000/svg" xmlns:xlink="http://www.w3.org/1999/xlink" viewBox="0 0 1920 1080" shape-rendering="geometricPrecision" text-rendering="geometricPrecision"><path d="M19.802087,892.538112l89.542659-83.765713q40.43862,28.884727,43.327093,31.7732c2.888473,2.888473,72.211821,17.330837,75.100294,14.442364q2.888473-2.888473,54.880984-37.550148q49.104038-129.98128,51.992511-129.98128t86.654185,34.661673L458.84996,589.248457l80.87724,43.327092l49.104039,40.438619l49.104038-25.996257l49.104039-40.438621l23.107781-66.5793l118.427387-86.509762l131.425513-31.773201l96.763842-115.538916l86.654185,66.434876l89.542659,63.546403l63.546403-31.773201l89.542658-5.776946l86.654185-54.880984l161.75448-34.661675q101.09655-75.100294,101.09655-77.988767c0-2.888473,69.323348,43.327092,69.323348,49.104038q0,5.776946,115.121689-75.100295" transform="translate(.000005 0.000013)" fill="none" stroke="#31d0aa" stroke-width="10" stroke-linecap="round" stroke-linejoin="round"/></svg>
